<mxfile host="app.diagrams.net" modified="2023-08-28T02:49:54.956Z" agent="Mozilla/5.0 (Windows NT 10.0; Win64; x64) AppleWebKit/537.36 (KHTML, like Gecko) Chrome/116.0.0.0 Safari/537.36 Edg/116.0.1938.62" etag="qQS39bZBWpxikrbG8mb2" version="21.6.9" type="github" pages="2">
  <diagram name="Page-1" id="74e2e168-ea6b-b213-b513-2b3c1d86103e">
    <mxGraphModel dx="1059" dy="608" grid="1" gridSize="10" guides="1" tooltips="1" connect="1" arrows="1" fold="1" page="1" pageScale="1" pageWidth="1100" pageHeight="850" background="none" math="0" shadow="0">
      <root>
        <mxCell id="0" />
        <mxCell id="1" parent="0" />
        <mxCell id="77e6c97f196da883-1" value="Pool" style="swimlane;html=1;childLayout=stackLayout;startSize=20;rounded=0;shadow=0;strokeWidth=1;align=center;verticalAlign=top;horizontal=0;movable=1;resizable=1;rotatable=1;deletable=1;editable=1;locked=0;connectable=1;fontSize=12;fontFamily=Times New Roman;" parent="1" vertex="1">
          <mxGeometry x="70" y="40" width="805" height="700" as="geometry">
            <mxRectangle x="70" y="40" width="60" height="20" as="alternateBounds" />
          </mxGeometry>
        </mxCell>
        <mxCell id="77e6c97f196da883-2" value="&lt;font style=&quot;font-size: 12px;&quot;&gt;Business Consultant&lt;/font&gt;" style="swimlane;html=1;startSize=20;fillColor=#f5b800;fontSize=12;fontFamily=Times New Roman;" parent="77e6c97f196da883-1" vertex="1">
          <mxGeometry x="20" width="110" height="700" as="geometry" />
        </mxCell>
        <mxCell id="77e6c97f196da883-9" value="&lt;font style=&quot;font-size: 12px;&quot;&gt;Monitor pengiriman unit&lt;/font&gt;" style="rounded=1;whiteSpace=wrap;html=1;shadow=0;labelBackgroundColor=none;strokeWidth=1;fontFamily=Times New Roman;fontSize=12;align=center;" parent="77e6c97f196da883-2" vertex="1">
          <mxGeometry x="5" y="155" width="100" height="60" as="geometry" />
        </mxCell>
        <mxCell id="77e6c97f196da883-3" value="" style="swimlane;html=1;startSize=20;fillColor=#f5b800;fontSize=12;align=center;fontFamily=Times New Roman;" parent="77e6c97f196da883-1" vertex="1">
          <mxGeometry x="130" width="240" height="700" as="geometry" />
        </mxCell>
        <mxCell id="77e6c97f196da883-21" value="&lt;font style=&quot;font-size: 12px;&quot;&gt;Upload invoice untuk mencatatkan tagihan dari vendor transportasi&lt;/font&gt;" style="rounded=1;whiteSpace=wrap;html=1;shadow=0;labelBackgroundColor=none;strokeWidth=1;fontFamily=Times New Roman;fontSize=12;align=center;" parent="77e6c97f196da883-3" vertex="1">
          <mxGeometry x="5" y="340" width="110" height="60" as="geometry" />
        </mxCell>
        <mxCell id="77e6c97f196da883-10" value="&lt;font style=&quot;font-size: 12px;&quot;&gt;Menerima dokumen pengiriman unit dan dokumen penagihan&lt;/font&gt;" style="rounded=1;whiteSpace=wrap;html=1;shadow=0;labelBackgroundColor=none;strokeWidth=1;fontFamily=Times New Roman;fontSize=12;align=center;" parent="77e6c97f196da883-3" vertex="1">
          <mxGeometry x="5" y="420" width="110" height="60" as="geometry" />
        </mxCell>
        <mxCell id="77e6c97f196da883-14" value="&lt;font style=&quot;font-size: 12px;&quot;&gt;Posting Invoice&lt;/font&gt;" style="rounded=1;whiteSpace=wrap;html=1;shadow=0;labelBackgroundColor=none;strokeWidth=1;fontFamily=Times New Roman;fontSize=12;align=center;" parent="77e6c97f196da883-3" vertex="1">
          <mxGeometry x="5" y="500" width="110" height="40" as="geometry" />
        </mxCell>
        <mxCell id="77e6c97f196da883-19" value="&lt;font style=&quot;font-size: 12px;&quot;&gt;Proses pembayaran vendor&lt;/font&gt;" style="rounded=1;whiteSpace=wrap;html=1;shadow=0;labelBackgroundColor=none;strokeWidth=1;fontFamily=Times New Roman;fontSize=12;align=center;" parent="77e6c97f196da883-3" vertex="1">
          <mxGeometry x="5" y="560" width="110" height="40" as="geometry" />
        </mxCell>
        <mxCell id="77e6c97f196da883-22" value="&lt;font style=&quot;font-size: 12px;&quot;&gt;Selesai&lt;/font&gt;" style="rounded=1;whiteSpace=wrap;html=1;shadow=0;labelBackgroundColor=none;strokeWidth=1;fontFamily=Times New Roman;fontSize=12;align=center;" parent="77e6c97f196da883-3" vertex="1">
          <mxGeometry x="5" y="620" width="110" height="40" as="geometry" />
        </mxCell>
        <mxCell id="9BGlGzTRq6roD9rzo5Fi-54" value="" style="endArrow=classic;html=1;rounded=0;exitX=0.5;exitY=1;exitDx=0;exitDy=0;entryX=0.5;entryY=0;entryDx=0;entryDy=0;endSize=5;startSize=5;fontSize=12;fontFamily=Times New Roman;" parent="77e6c97f196da883-3" source="77e6c97f196da883-21" target="77e6c97f196da883-10" edge="1">
          <mxGeometry width="50" height="50" relative="1" as="geometry">
            <mxPoint x="167.5" y="590" as="sourcePoint" />
            <mxPoint x="217.5" y="540" as="targetPoint" />
          </mxGeometry>
        </mxCell>
        <mxCell id="9BGlGzTRq6roD9rzo5Fi-55" value="" style="endArrow=classic;html=1;rounded=0;endSize=5;startSize=5;exitX=0.5;exitY=1;exitDx=0;exitDy=0;entryX=0.5;entryY=0;entryDx=0;entryDy=0;jumpSize=6;fontSize=12;fontFamily=Times New Roman;" parent="77e6c97f196da883-3" source="77e6c97f196da883-10" target="77e6c97f196da883-14" edge="1">
          <mxGeometry width="50" height="50" relative="1" as="geometry">
            <mxPoint x="411.5" y="670" as="sourcePoint" />
            <mxPoint x="411.5" y="700" as="targetPoint" />
          </mxGeometry>
        </mxCell>
        <mxCell id="9BGlGzTRq6roD9rzo5Fi-56" value="" style="endArrow=classic;html=1;rounded=0;endSize=5;startSize=5;exitX=0.5;exitY=1;exitDx=0;exitDy=0;entryX=0.5;entryY=0;entryDx=0;entryDy=0;fontSize=12;fontFamily=Times New Roman;" parent="77e6c97f196da883-3" source="77e6c97f196da883-14" target="77e6c97f196da883-19" edge="1">
          <mxGeometry width="50" height="50" relative="1" as="geometry">
            <mxPoint x="421.5" y="680" as="sourcePoint" />
            <mxPoint x="421.5" y="710" as="targetPoint" />
          </mxGeometry>
        </mxCell>
        <mxCell id="9BGlGzTRq6roD9rzo5Fi-57" value="" style="endArrow=classic;html=1;rounded=0;endSize=5;startSize=5;exitX=0.5;exitY=1;exitDx=0;exitDy=0;entryX=0.5;entryY=0;entryDx=0;entryDy=0;fontSize=12;fontFamily=Times New Roman;" parent="77e6c97f196da883-3" source="77e6c97f196da883-19" target="77e6c97f196da883-22" edge="1">
          <mxGeometry width="50" height="50" relative="1" as="geometry">
            <mxPoint x="431.5" y="690" as="sourcePoint" />
            <mxPoint x="431.5" y="720" as="targetPoint" />
          </mxGeometry>
        </mxCell>
        <mxCell id="77e6c97f196da883-4" value="&lt;font style=&quot;font-size: 12px;&quot;&gt;PDH/SDH&lt;/font&gt;" style="swimlane;html=1;startSize=20;fillColor=#f5b800;fontSize=12;fontFamily=Times New Roman;" parent="77e6c97f196da883-3" vertex="1">
          <mxGeometry x="120" width="120" height="700" as="geometry" />
        </mxCell>
        <mxCell id="77e6c97f196da883-12" value="&lt;font style=&quot;font-size: 12px;&quot;&gt;Update actual time departure (ATD) di SAP&lt;/font&gt;" style="rounded=1;whiteSpace=wrap;html=1;shadow=0;labelBackgroundColor=none;strokeWidth=1;fontFamily=Times New Roman;fontSize=12;align=center;" parent="77e6c97f196da883-4" vertex="1">
          <mxGeometry x="10" y="155" width="100" height="60" as="geometry" />
        </mxCell>
        <mxCell id="77e6c97f196da883-15" value="&lt;font style=&quot;font-size: 12px;&quot;&gt;Setelah pengiriman ditandatangani update actual time departure (ATD) di SAP&lt;/font&gt;" style="rounded=1;whiteSpace=wrap;html=1;shadow=0;labelBackgroundColor=none;strokeWidth=1;fontFamily=Times New Roman;fontSize=12;align=center;" parent="77e6c97f196da883-4" vertex="1">
          <mxGeometry x="-90" y="240" width="145" height="60" as="geometry" />
        </mxCell>
        <mxCell id="77e6c97f196da883-11" value="&lt;font style=&quot;font-size: 12px;&quot;&gt;Melakukan serah terima unit dan dokumen pengiriman unit ke PIC vendor Transportasi&lt;/font&gt;" style="rounded=1;whiteSpace=wrap;html=1;shadow=0;labelBackgroundColor=none;strokeWidth=1;fontFamily=Times New Roman;fontSize=12;align=center;" parent="77e6c97f196da883-4" vertex="1">
          <mxGeometry x="-112.5" y="70" width="190" height="60" as="geometry" />
        </mxCell>
        <mxCell id="OlNoSFknCZAks61m3oYo-1" value="LOGAM" style="text;html=1;strokeColor=none;fillColor=none;align=center;verticalAlign=middle;whiteSpace=wrap;rounded=0;fontFamily=Times New Roman;fontStyle=1;fontSize=12;" parent="77e6c97f196da883-3" vertex="1">
          <mxGeometry x="30" width="60" height="20" as="geometry" />
        </mxCell>
        <mxCell id="OlNoSFknCZAks61m3oYo-2" value="" style="endArrow=classic;html=1;rounded=0;entryX=0.5;entryY=0;entryDx=0;entryDy=0;endSize=5;startSize=5;fontFamily=Times New Roman;fontSize=12;" parent="77e6c97f196da883-3" target="77e6c97f196da883-12" edge="1">
          <mxGeometry width="50" height="50" relative="1" as="geometry">
            <mxPoint x="180" y="140" as="sourcePoint" />
            <mxPoint x="330" y="190" as="targetPoint" />
            <Array as="points">
              <mxPoint x="180" y="130" />
              <mxPoint x="180" y="140" />
            </Array>
          </mxGeometry>
        </mxCell>
        <mxCell id="77e6c97f196da883-5" value="&lt;font style=&quot;font-size: 12px;&quot;&gt;ADH&lt;/font&gt;" style="swimlane;html=1;startSize=20;fillColor=#f5b800;fontSize=12;fontFamily=Times New Roman;" parent="77e6c97f196da883-1" vertex="1">
          <mxGeometry x="370" width="140" height="700" as="geometry" />
        </mxCell>
        <mxCell id="77e6c97f196da883-23" value="&lt;font style=&quot;font-size: 12px;&quot;&gt;Upload Invoice untuk mencatatkan tagihan dari vendor transportasi&lt;/font&gt;" style="rounded=1;whiteSpace=wrap;html=1;shadow=0;labelBackgroundColor=none;strokeWidth=1;fontFamily=Times New Roman;fontSize=12;align=center;" parent="77e6c97f196da883-5" vertex="1">
          <mxGeometry x="8.75" y="385" width="122.5" height="60" as="geometry" />
        </mxCell>
        <mxCell id="9BGlGzTRq6roD9rzo5Fi-9" value="&lt;font style=&quot;font-size: 12px;&quot;&gt;Menerima dokumen pengiriman unit dan dokumen penagihan&lt;/font&gt;" style="rounded=1;whiteSpace=wrap;html=1;shadow=0;labelBackgroundColor=none;strokeWidth=1;fontFamily=Times New Roman;fontSize=12;align=center;" parent="77e6c97f196da883-5" vertex="1">
          <mxGeometry x="8.75" y="460" width="122.5" height="60" as="geometry" />
        </mxCell>
        <mxCell id="9BGlGzTRq6roD9rzo5Fi-10" value="&lt;font style=&quot;font-size: 12px;&quot;&gt;Posting invoice&lt;/font&gt;" style="rounded=1;whiteSpace=wrap;html=1;shadow=0;labelBackgroundColor=none;strokeWidth=1;fontFamily=Times New Roman;fontSize=12;align=center;" parent="77e6c97f196da883-5" vertex="1">
          <mxGeometry x="8.75" y="540" width="122.5" height="40" as="geometry" />
        </mxCell>
        <mxCell id="9BGlGzTRq6roD9rzo5Fi-11" value="&lt;font style=&quot;font-size: 12px;&quot;&gt;Proses pembayaran vendor&lt;/font&gt;" style="rounded=1;whiteSpace=wrap;html=1;shadow=0;labelBackgroundColor=none;strokeWidth=1;fontFamily=Times New Roman;fontSize=12;align=center;" parent="77e6c97f196da883-5" vertex="1">
          <mxGeometry x="8.75" y="600" width="122.5" height="40" as="geometry" />
        </mxCell>
        <mxCell id="9BGlGzTRq6roD9rzo5Fi-12" value="&lt;font style=&quot;font-size: 12px;&quot;&gt;Selesai&lt;/font&gt;" style="rounded=1;whiteSpace=wrap;html=1;shadow=0;labelBackgroundColor=none;strokeWidth=1;fontFamily=Times New Roman;fontSize=12;align=center;" parent="77e6c97f196da883-5" vertex="1">
          <mxGeometry x="8.75" y="660" width="122.5" height="30" as="geometry" />
        </mxCell>
        <mxCell id="9BGlGzTRq6roD9rzo5Fi-42" value="" style="endArrow=classic;html=1;rounded=0;endSize=5;startSize=5;exitX=0.5;exitY=1;exitDx=0;exitDy=0;entryX=0.5;entryY=0;entryDx=0;entryDy=0;fontSize=12;fontFamily=Times New Roman;" parent="77e6c97f196da883-5" source="77e6c97f196da883-23" target="9BGlGzTRq6roD9rzo5Fi-9" edge="1">
          <mxGeometry width="50" height="50" relative="1" as="geometry">
            <mxPoint x="-13.75" y="320" as="sourcePoint" />
            <mxPoint x="36.25" y="270" as="targetPoint" />
          </mxGeometry>
        </mxCell>
        <mxCell id="9BGlGzTRq6roD9rzo5Fi-43" value="" style="endArrow=classic;html=1;rounded=0;endSize=5;startSize=5;exitX=0.5;exitY=1;exitDx=0;exitDy=0;entryX=0.5;entryY=0;entryDx=0;entryDy=0;fontSize=12;fontFamily=Times New Roman;" parent="77e6c97f196da883-5" source="9BGlGzTRq6roD9rzo5Fi-9" target="9BGlGzTRq6roD9rzo5Fi-10" edge="1">
          <mxGeometry width="50" height="50" relative="1" as="geometry">
            <mxPoint x="80.25" y="490" as="sourcePoint" />
            <mxPoint x="80.25" y="520" as="targetPoint" />
          </mxGeometry>
        </mxCell>
        <mxCell id="9BGlGzTRq6roD9rzo5Fi-52" value="" style="endArrow=classic;html=1;rounded=0;endSize=5;startSize=5;exitX=0.5;exitY=1;exitDx=0;exitDy=0;entryX=0.5;entryY=0;entryDx=0;entryDy=0;fontSize=12;fontFamily=Times New Roman;" parent="77e6c97f196da883-5" source="9BGlGzTRq6roD9rzo5Fi-10" target="9BGlGzTRq6roD9rzo5Fi-11" edge="1">
          <mxGeometry width="50" height="50" relative="1" as="geometry">
            <mxPoint x="80.25" y="580" as="sourcePoint" />
            <mxPoint x="80.25" y="610" as="targetPoint" />
          </mxGeometry>
        </mxCell>
        <mxCell id="9BGlGzTRq6roD9rzo5Fi-53" value="" style="endArrow=classic;html=1;rounded=0;endSize=5;startSize=5;exitX=0.5;exitY=1;exitDx=0;exitDy=0;entryX=0.5;entryY=0;entryDx=0;entryDy=0;fontSize=12;fontFamily=Times New Roman;" parent="77e6c97f196da883-5" source="9BGlGzTRq6roD9rzo5Fi-11" target="9BGlGzTRq6roD9rzo5Fi-12" edge="1">
          <mxGeometry width="50" height="50" relative="1" as="geometry">
            <mxPoint x="80.25" y="650" as="sourcePoint" />
            <mxPoint x="80.25" y="680" as="targetPoint" />
          </mxGeometry>
        </mxCell>
        <mxCell id="77e6c97f196da883-6" value="&lt;font style=&quot;font-size: 12px;&quot;&gt;LOGAM Head&lt;/font&gt;" style="swimlane;html=1;startSize=20;fillColor=#f5b800;fontSize=12;fontFamily=Times New Roman;" parent="77e6c97f196da883-1" vertex="1">
          <mxGeometry x="510" width="90" height="700" as="geometry" />
        </mxCell>
        <mxCell id="9BGlGzTRq6roD9rzo5Fi-1" value="&lt;font style=&quot;font-size: 12px;&quot;&gt;BOH&lt;/font&gt;" style="swimlane;html=1;startSize=20;fillColor=#f5b800;fontSize=12;fontFamily=Times New Roman;" parent="77e6c97f196da883-1" vertex="1">
          <mxGeometry x="600" width="80" height="700" as="geometry" />
        </mxCell>
        <mxCell id="9BGlGzTRq6roD9rzo5Fi-14" value="&lt;font style=&quot;font-size: 12px;&quot;&gt;6.1.10&lt;/font&gt;" style="ellipse;whiteSpace=wrap;html=1;fontSize=12;fontFamily=Times New Roman;" parent="9BGlGzTRq6roD9rzo5Fi-1" vertex="1">
          <mxGeometry x="-10" y="30" width="65" height="30" as="geometry" />
        </mxCell>
        <mxCell id="9BGlGzTRq6roD9rzo5Fi-15" value="&lt;font style=&quot;font-size: 12px;&quot;&gt;Menandatangani dokumen pengiriman unit&lt;/font&gt;" style="rounded=1;whiteSpace=wrap;html=1;fontSize=12;fontFamily=Times New Roman;" parent="9BGlGzTRq6roD9rzo5Fi-1" vertex="1">
          <mxGeometry x="-80" y="90" width="140" height="50" as="geometry" />
        </mxCell>
        <mxCell id="OlNoSFknCZAks61m3oYo-4" value="" style="endArrow=classic;html=1;rounded=0;exitX=0.5;exitY=1;exitDx=0;exitDy=0;entryX=0.645;entryY=0.003;entryDx=0;entryDy=0;entryPerimeter=0;fontFamily=Times New Roman;fontSize=12;" parent="9BGlGzTRq6roD9rzo5Fi-1" source="9BGlGzTRq6roD9rzo5Fi-14" target="9BGlGzTRq6roD9rzo5Fi-15" edge="1">
          <mxGeometry width="50" height="50" relative="1" as="geometry">
            <mxPoint x="-35" y="60" as="sourcePoint" />
            <mxPoint y="90" as="targetPoint" />
            <Array as="points">
              <mxPoint x="23" y="80" />
              <mxPoint x="10" y="80" />
            </Array>
          </mxGeometry>
        </mxCell>
        <mxCell id="9BGlGzTRq6roD9rzo5Fi-28" style="edgeStyle=orthogonalEdgeStyle;rounded=1;html=1;labelBackgroundColor=none;startArrow=none;startFill=0;startSize=5;endArrow=classicThin;endFill=1;endSize=5;jettySize=auto;orthogonalLoop=1;strokeWidth=1;fontFamily=Times New Roman;fontSize=12;exitX=1;exitY=0.5;exitDx=0;exitDy=0;entryX=0;entryY=0.5;entryDx=0;entryDy=0;" parent="77e6c97f196da883-1" source="77e6c97f196da883-15" target="77e6c97f196da883-17" edge="1">
          <mxGeometry relative="1" as="geometry">
            <mxPoint x="150" y="195" as="sourcePoint" />
            <mxPoint x="430" y="280" as="targetPoint" />
            <Array as="points">
              <mxPoint x="610" y="270" />
              <mxPoint x="610" y="270" />
            </Array>
          </mxGeometry>
        </mxCell>
        <mxCell id="77e6c97f196da883-30" style="edgeStyle=orthogonalEdgeStyle;rounded=1;html=1;labelBackgroundColor=none;startArrow=none;startFill=0;startSize=5;endArrow=classicThin;endFill=1;endSize=5;jettySize=auto;orthogonalLoop=1;strokeWidth=1;fontFamily=Times New Roman;fontSize=12;entryX=0;entryY=0.5;entryDx=0;entryDy=0;exitX=0.5;exitY=1;exitDx=0;exitDy=0;" parent="77e6c97f196da883-1" source="77e6c97f196da883-9" target="77e6c97f196da883-15" edge="1">
          <mxGeometry relative="1" as="geometry">
            <mxPoint x="360" y="290" as="targetPoint" />
          </mxGeometry>
        </mxCell>
        <mxCell id="77e6c97f196da883-28" style="edgeStyle=orthogonalEdgeStyle;rounded=1;html=1;labelBackgroundColor=none;startArrow=none;startFill=0;startSize=5;endArrow=classicThin;endFill=1;endSize=5;jettySize=auto;orthogonalLoop=1;strokeWidth=1;fontFamily=Times New Roman;fontSize=12;" parent="77e6c97f196da883-1" source="77e6c97f196da883-12" target="77e6c97f196da883-9" edge="1">
          <mxGeometry relative="1" as="geometry" />
        </mxCell>
        <mxCell id="9BGlGzTRq6roD9rzo5Fi-36" style="edgeStyle=orthogonalEdgeStyle;rounded=1;html=1;labelBackgroundColor=none;startArrow=none;startFill=0;startSize=5;endArrow=classicThin;endFill=1;endSize=5;jettySize=auto;orthogonalLoop=1;strokeWidth=1;fontFamily=Times New Roman;fontSize=12;exitX=0;exitY=1;exitDx=0;exitDy=0;" parent="77e6c97f196da883-1" source="9BGlGzTRq6roD9rzo5Fi-3" edge="1">
          <mxGeometry relative="1" as="geometry">
            <mxPoint x="1000" y="510" as="sourcePoint" />
            <mxPoint x="501" y="420" as="targetPoint" />
            <Array as="points">
              <mxPoint x="723" y="473" />
              <mxPoint x="690" y="473" />
              <mxPoint x="690" y="420" />
              <mxPoint x="501" y="420" />
            </Array>
          </mxGeometry>
        </mxCell>
        <mxCell id="9BGlGzTRq6roD9rzo5Fi-37" value="No" style="edgeLabel;html=1;align=center;verticalAlign=middle;resizable=0;points=[];fontSize=12;fontFamily=Times New Roman;" parent="9BGlGzTRq6roD9rzo5Fi-36" vertex="1" connectable="0">
          <mxGeometry x="-0.6283" y="2" relative="1" as="geometry">
            <mxPoint x="-99" y="-2" as="offset" />
          </mxGeometry>
        </mxCell>
        <mxCell id="9BGlGzTRq6roD9rzo5Fi-30" style="edgeStyle=orthogonalEdgeStyle;rounded=1;html=1;labelBackgroundColor=none;startArrow=none;startFill=0;startSize=5;endArrow=classicThin;endFill=1;endSize=5;jettySize=auto;orthogonalLoop=1;strokeWidth=1;fontFamily=Times New Roman;fontSize=12;entryX=0.5;entryY=0;entryDx=0;entryDy=0;exitX=0;exitY=0.5;exitDx=0;exitDy=0;" parent="77e6c97f196da883-1" source="77e6c97f196da883-18" target="77e6c97f196da883-21" edge="1">
          <mxGeometry relative="1" as="geometry">
            <mxPoint x="859.96" y="434.98" as="sourcePoint" />
            <mxPoint x="242.45999999999998" y="364.98" as="targetPoint" />
            <Array as="points">
              <mxPoint x="670" y="375" />
              <mxPoint x="670" y="350" />
              <mxPoint x="273" y="350" />
              <mxPoint x="273" y="320" />
              <mxPoint x="190" y="320" />
            </Array>
          </mxGeometry>
        </mxCell>
        <mxCell id="9BGlGzTRq6roD9rzo5Fi-31" value="Yes" style="edgeLabel;html=1;align=center;verticalAlign=middle;resizable=0;points=[];fontSize=12;fontFamily=Times New Roman;" parent="9BGlGzTRq6roD9rzo5Fi-30" vertex="1" connectable="0">
          <mxGeometry x="-0.6283" y="2" relative="1" as="geometry">
            <mxPoint y="-2" as="offset" />
          </mxGeometry>
        </mxCell>
        <mxCell id="77e6c97f196da883-7" value="&lt;font style=&quot;font-size: 12px;&quot;&gt;Vendor/Forwarder&lt;/font&gt;" style="swimlane;html=1;startSize=20;fillColor=#f5b800;strokeColor=#000000;fontSize=12;fontFamily=Times New Roman;" parent="77e6c97f196da883-1" vertex="1">
          <mxGeometry x="680" width="125" height="700" as="geometry" />
        </mxCell>
        <mxCell id="77e6c97f196da883-17" value="&lt;font style=&quot;font-size: 12px;&quot;&gt;Setelah dok pengiriman ditandatangani, update actual time departure (ATD) di SAP&lt;/font&gt;" style="rounded=1;whiteSpace=wrap;html=1;shadow=0;labelBackgroundColor=none;strokeWidth=1;fontFamily=Times New Roman;fontSize=12;align=center;" parent="77e6c97f196da883-7" vertex="1">
          <mxGeometry x="5" y="225" width="115" height="90" as="geometry" />
        </mxCell>
        <mxCell id="77e6c97f196da883-18" value="&lt;font style=&quot;font-size: 12px;&quot;&gt;Mengirimkan Dokumen pengiriman unit dan dokumen penagihan ke LOGAM/ADH&lt;/font&gt;" style="rounded=1;whiteSpace=wrap;html=1;shadow=0;labelBackgroundColor=none;strokeWidth=1;fontFamily=Times New Roman;fontSize=12;align=center;" parent="77e6c97f196da883-7" vertex="1">
          <mxGeometry x="10" y="340" width="110" height="70" as="geometry" />
        </mxCell>
        <mxCell id="107ba76e4e335f99-1" style="edgeStyle=orthogonalEdgeStyle;rounded=1;html=1;labelBackgroundColor=none;startArrow=none;startFill=0;startSize=5;endArrow=classicThin;endFill=1;endSize=5;jettySize=auto;orthogonalLoop=1;strokeWidth=1;fontFamily=Times New Roman;fontSize=12;" parent="77e6c97f196da883-7" source="77e6c97f196da883-17" target="77e6c97f196da883-18" edge="1">
          <mxGeometry relative="1" as="geometry">
            <Array as="points">
              <mxPoint x="85" y="340" />
              <mxPoint x="85" y="340" />
            </Array>
          </mxGeometry>
        </mxCell>
        <mxCell id="9BGlGzTRq6roD9rzo5Fi-3" value="&lt;font style=&quot;font-size: 12px;&quot;&gt;Dari HO?&lt;/font&gt;" style="rhombus;whiteSpace=wrap;html=1;fontSize=12;fontFamily=Times New Roman;" parent="77e6c97f196da883-7" vertex="1">
          <mxGeometry x="22.5" y="440" width="80" height="50" as="geometry" />
        </mxCell>
        <mxCell id="9BGlGzTRq6roD9rzo5Fi-6" style="edgeStyle=orthogonalEdgeStyle;rounded=1;html=1;labelBackgroundColor=none;startArrow=none;startFill=0;startSize=5;endArrow=classicThin;endFill=1;endSize=5;jettySize=auto;orthogonalLoop=1;strokeWidth=1;fontFamily=Times New Roman;fontSize=12;exitX=0.5;exitY=1;exitDx=0;exitDy=0;entryX=0.5;entryY=0;entryDx=0;entryDy=0;" parent="77e6c97f196da883-7" source="77e6c97f196da883-18" target="9BGlGzTRq6roD9rzo5Fi-3" edge="1">
          <mxGeometry relative="1" as="geometry">
            <mxPoint x="95" y="320" as="sourcePoint" />
            <mxPoint x="95" y="350" as="targetPoint" />
            <Array as="points">
              <mxPoint x="63" y="410" />
              <mxPoint x="63" y="440" />
            </Array>
          </mxGeometry>
        </mxCell>
        <mxCell id="OlNoSFknCZAks61m3oYo-3" value="" style="endArrow=classic;html=1;rounded=0;exitX=0;exitY=0.5;exitDx=0;exitDy=0;entryX=1;entryY=0.5;entryDx=0;entryDy=0;fontFamily=Times New Roman;fontSize=12;" parent="77e6c97f196da883-1" source="9BGlGzTRq6roD9rzo5Fi-15" target="77e6c97f196da883-11" edge="1">
          <mxGeometry width="50" height="50" relative="1" as="geometry">
            <mxPoint x="420" y="330" as="sourcePoint" />
            <mxPoint x="470" y="280" as="targetPoint" />
            <Array as="points">
              <mxPoint x="470" y="115" />
              <mxPoint x="470" y="100" />
            </Array>
          </mxGeometry>
        </mxCell>
      </root>
    </mxGraphModel>
  </diagram>
  <diagram name="Copy of Page-1" id="cg9GMMz7otzsrp_HKrdm">
    <mxGraphModel dx="1059" dy="608" grid="1" gridSize="10" guides="1" tooltips="1" connect="1" arrows="1" fold="1" page="1" pageScale="1" pageWidth="1100" pageHeight="850" background="none" math="0" shadow="0">
      <root>
        <mxCell id="F47bq9M9ml_TmjAejz09-0" />
        <mxCell id="F47bq9M9ml_TmjAejz09-1" parent="F47bq9M9ml_TmjAejz09-0" />
        <mxCell id="F47bq9M9ml_TmjAejz09-2" value="Pool" style="swimlane;html=1;childLayout=stackLayout;startSize=20;rounded=0;shadow=0;strokeWidth=1;align=center;verticalAlign=top;horizontal=0;movable=1;resizable=1;rotatable=1;deletable=1;editable=1;locked=0;connectable=1;fontSize=12;fontFamily=Times New Roman;" vertex="1" parent="F47bq9M9ml_TmjAejz09-1">
          <mxGeometry x="60" y="40" width="352.5" height="800" as="geometry">
            <mxRectangle x="70" y="40" width="60" height="20" as="alternateBounds" />
          </mxGeometry>
        </mxCell>
        <mxCell id="F47bq9M9ml_TmjAejz09-3" value="&lt;font style=&quot;font-size: 12px;&quot;&gt;Logam / Importation Section&lt;/font&gt;" style="swimlane;html=1;startSize=20;fillColor=#f5b800;fontSize=12;fontFamily=Times New Roman;" vertex="1" parent="F47bq9M9ml_TmjAejz09-2">
          <mxGeometry x="20" width="180" height="800" as="geometry" />
        </mxCell>
        <mxCell id="F47bq9M9ml_TmjAejz09-4" value="&lt;font&gt;Mulai&lt;/font&gt;" style="rounded=1;whiteSpace=wrap;html=1;shadow=0;labelBackgroundColor=none;strokeWidth=1;fontFamily=Times New Roman;fontSize=12;align=center;" vertex="1" parent="F47bq9M9ml_TmjAejz09-3">
          <mxGeometry x="60" y="40" width="60" height="40" as="geometry" />
        </mxCell>
        <mxCell id="F47bq9M9ml_TmjAejz09-22" value="&lt;font&gt;Melakukan monitoring kedatangan barang atau kapal di Priok dan memastikan proses Custom Clearance dilakukan setelah adanya SPPB&lt;/font&gt;" style="rounded=1;whiteSpace=wrap;html=1;shadow=0;labelBackgroundColor=none;strokeWidth=1;fontFamily=Times New Roman;fontSize=12;align=center;" vertex="1" parent="F47bq9M9ml_TmjAejz09-3">
          <mxGeometry x="10" y="130" width="160" height="100" as="geometry" />
        </mxCell>
        <mxCell id="F47bq9M9ml_TmjAejz09-23" value="&lt;font&gt;Memastikan kesesuaian jumlah jenis dan kualitas barang (untuk container dikirim dahulu)&lt;/font&gt;" style="rounded=1;whiteSpace=wrap;html=1;shadow=0;labelBackgroundColor=none;strokeWidth=1;fontFamily=Times New Roman;fontSize=12;align=center;" vertex="1" parent="F47bq9M9ml_TmjAejz09-3">
          <mxGeometry x="10" y="280" width="160" height="80" as="geometry" />
        </mxCell>
        <mxCell id="F47bq9M9ml_TmjAejz09-27" value="" style="endArrow=classic;html=1;rounded=0;endSize=5;startSize=5;exitX=0.5;exitY=1;exitDx=0;exitDy=0;entryX=0.5;entryY=0;entryDx=0;entryDy=0;fontSize=12;fontFamily=Times New Roman;" edge="1" parent="F47bq9M9ml_TmjAejz09-3" source="F47bq9M9ml_TmjAejz09-22" target="F47bq9M9ml_TmjAejz09-23">
          <mxGeometry width="50" height="50" relative="1" as="geometry">
            <mxPoint x="136.25" y="320" as="sourcePoint" />
            <mxPoint x="186.25" y="270" as="targetPoint" />
          </mxGeometry>
        </mxCell>
        <mxCell id="a-Qis_OgJlFIdu-Pk8SA-2" value="" style="endArrow=classic;html=1;rounded=0;exitX=0.5;exitY=1;exitDx=0;exitDy=0;entryX=0.5;entryY=0;entryDx=0;entryDy=0;endSize=5;startSize=5;" edge="1" parent="F47bq9M9ml_TmjAejz09-3" source="F47bq9M9ml_TmjAejz09-4" target="F47bq9M9ml_TmjAejz09-22">
          <mxGeometry width="50" height="50" relative="1" as="geometry">
            <mxPoint x="260" y="280" as="sourcePoint" />
            <mxPoint x="310" y="230" as="targetPoint" />
          </mxGeometry>
        </mxCell>
        <mxCell id="F47bq9M9ml_TmjAejz09-36" style="edgeStyle=orthogonalEdgeStyle;rounded=1;html=1;labelBackgroundColor=none;startArrow=none;startFill=0;startSize=5;endArrow=classicThin;endFill=1;endSize=5;jettySize=auto;orthogonalLoop=1;strokeWidth=1;fontFamily=Verdana;fontSize=12;exitX=1;exitY=0.5;exitDx=0;exitDy=0;entryX=0;entryY=0.5;entryDx=0;entryDy=0;" edge="1" parent="F47bq9M9ml_TmjAejz09-2" source="F47bq9M9ml_TmjAejz09-17" target="F47bq9M9ml_TmjAejz09-44">
          <mxGeometry relative="1" as="geometry">
            <mxPoint x="150" y="195" as="sourcePoint" />
            <mxPoint x="430" y="280" as="targetPoint" />
            <Array as="points">
              <mxPoint x="610" y="270" />
              <mxPoint x="610" y="270" />
            </Array>
          </mxGeometry>
        </mxCell>
        <mxCell id="F47bq9M9ml_TmjAejz09-37" style="edgeStyle=orthogonalEdgeStyle;rounded=1;html=1;labelBackgroundColor=none;startArrow=none;startFill=0;startSize=5;endArrow=classicThin;endFill=1;endSize=5;jettySize=auto;orthogonalLoop=1;strokeWidth=1;fontFamily=Verdana;fontSize=12;entryX=0;entryY=0.5;entryDx=0;entryDy=0;exitX=0.5;exitY=1;exitDx=0;exitDy=0;" edge="1" parent="F47bq9M9ml_TmjAejz09-2" source="F47bq9M9ml_TmjAejz09-4" target="F47bq9M9ml_TmjAejz09-17">
          <mxGeometry relative="1" as="geometry">
            <mxPoint x="360" y="290" as="targetPoint" />
          </mxGeometry>
        </mxCell>
        <mxCell id="F47bq9M9ml_TmjAejz09-38" style="edgeStyle=orthogonalEdgeStyle;rounded=1;html=1;labelBackgroundColor=none;startArrow=none;startFill=0;startSize=5;endArrow=classicThin;endFill=1;endSize=5;jettySize=auto;orthogonalLoop=1;strokeWidth=1;fontFamily=Verdana;fontSize=12;" edge="1" parent="F47bq9M9ml_TmjAejz09-2" source="F47bq9M9ml_TmjAejz09-16" target="F47bq9M9ml_TmjAejz09-4">
          <mxGeometry relative="1" as="geometry" />
        </mxCell>
        <mxCell id="F47bq9M9ml_TmjAejz09-39" style="edgeStyle=orthogonalEdgeStyle;rounded=1;html=1;labelBackgroundColor=none;startArrow=none;startFill=0;startSize=5;endArrow=classicThin;endFill=1;endSize=5;jettySize=auto;orthogonalLoop=1;strokeWidth=1;fontFamily=Verdana;fontSize=12;entryX=1;entryY=0.5;entryDx=0;entryDy=0;exitX=0;exitY=1;exitDx=0;exitDy=0;" edge="1" parent="F47bq9M9ml_TmjAejz09-2" source="F47bq9M9ml_TmjAejz09-47" target="F47bq9M9ml_TmjAejz09-22">
          <mxGeometry relative="1" as="geometry">
            <mxPoint x="1000" y="510" as="sourcePoint" />
            <mxPoint x="333" y="395" as="targetPoint" />
            <Array as="points">
              <mxPoint x="750" y="473" />
              <mxPoint x="750" y="450" />
            </Array>
          </mxGeometry>
        </mxCell>
        <mxCell id="F47bq9M9ml_TmjAejz09-40" value="No" style="edgeLabel;html=1;align=center;verticalAlign=middle;resizable=0;points=[];fontSize=12;" vertex="1" connectable="0" parent="F47bq9M9ml_TmjAejz09-39">
          <mxGeometry x="-0.6283" y="2" relative="1" as="geometry">
            <mxPoint x="-99" y="-2" as="offset" />
          </mxGeometry>
        </mxCell>
        <mxCell id="F47bq9M9ml_TmjAejz09-41" style="edgeStyle=orthogonalEdgeStyle;rounded=1;html=1;labelBackgroundColor=none;startArrow=none;startFill=0;startSize=5;endArrow=classicThin;endFill=1;endSize=5;jettySize=auto;orthogonalLoop=1;strokeWidth=1;fontFamily=Verdana;fontSize=12;entryX=0.5;entryY=0;entryDx=0;entryDy=0;exitX=0;exitY=0.5;exitDx=0;exitDy=0;" edge="1" parent="F47bq9M9ml_TmjAejz09-2" source="F47bq9M9ml_TmjAejz09-45" target="F47bq9M9ml_TmjAejz09-6">
          <mxGeometry relative="1" as="geometry">
            <mxPoint x="859.96" y="434.98" as="sourcePoint" />
            <mxPoint x="242.45999999999998" y="364.98" as="targetPoint" />
            <Array as="points">
              <mxPoint x="670" y="375" />
              <mxPoint x="670" y="350" />
              <mxPoint x="273" y="350" />
              <mxPoint x="273" y="360" />
              <mxPoint x="190" y="360" />
            </Array>
          </mxGeometry>
        </mxCell>
        <mxCell id="F47bq9M9ml_TmjAejz09-42" value="Yes" style="edgeLabel;html=1;align=center;verticalAlign=middle;resizable=0;points=[];fontSize=12;" vertex="1" connectable="0" parent="F47bq9M9ml_TmjAejz09-41">
          <mxGeometry x="-0.6283" y="2" relative="1" as="geometry">
            <mxPoint y="-2" as="offset" />
          </mxGeometry>
        </mxCell>
        <mxCell id="F47bq9M9ml_TmjAejz09-49" value="" style="endArrow=classic;html=1;rounded=0;exitX=0;exitY=0.5;exitDx=0;exitDy=0;entryX=1;entryY=0.5;entryDx=0;entryDy=0;" edge="1" parent="F47bq9M9ml_TmjAejz09-2" source="F47bq9M9ml_TmjAejz09-34" target="F47bq9M9ml_TmjAejz09-18">
          <mxGeometry width="50" height="50" relative="1" as="geometry">
            <mxPoint x="420" y="330" as="sourcePoint" />
            <mxPoint x="470" y="280" as="targetPoint" />
            <Array as="points">
              <mxPoint x="470" y="115" />
              <mxPoint x="470" y="100" />
            </Array>
          </mxGeometry>
        </mxCell>
        <mxCell id="F47bq9M9ml_TmjAejz09-28" value="" style="endArrow=classic;html=1;rounded=0;endSize=5;startSize=5;exitX=1;exitY=0.5;exitDx=0;exitDy=0;entryX=0;entryY=0.5;entryDx=0;entryDy=0;fontSize=12;fontFamily=Times New Roman;" edge="1" parent="F47bq9M9ml_TmjAejz09-2" source="F47bq9M9ml_TmjAejz09-23" target="F47bq9M9ml_TmjAejz09-24">
          <mxGeometry width="50" height="50" relative="1" as="geometry">
            <mxPoint x="250.25" y="490" as="sourcePoint" />
            <mxPoint x="250.25" y="520" as="targetPoint" />
          </mxGeometry>
        </mxCell>
        <mxCell id="F47bq9M9ml_TmjAejz09-21" value="&lt;font style=&quot;font-size: 12px;&quot;&gt;Tim Yard&lt;/font&gt;" style="swimlane;html=1;startSize=20;fillColor=#f5b800;fontSize=12;fontFamily=Times New Roman;" vertex="1" parent="F47bq9M9ml_TmjAejz09-2">
          <mxGeometry x="200" width="152.5" height="800" as="geometry" />
        </mxCell>
        <mxCell id="F47bq9M9ml_TmjAejz09-24" value="&lt;font style=&quot;font-size: 12px;&quot;&gt;Melakukan Pengecekan Barang&lt;/font&gt;" style="rounded=1;whiteSpace=wrap;html=1;shadow=0;labelBackgroundColor=none;strokeWidth=1;fontFamily=Times New Roman;fontSize=12;align=center;" vertex="1" parent="F47bq9M9ml_TmjAejz09-21">
          <mxGeometry x="15" y="290" width="122.5" height="60" as="geometry" />
        </mxCell>
        <mxCell id="F47bq9M9ml_TmjAejz09-25" value="&lt;font style=&quot;font-size: 12px;&quot;&gt;Menginformasikan ke tim import untuk dilakukan claim ke ansuransi atau prinsipal jika ada ketidaksesuaian&lt;/font&gt;" style="rounded=1;whiteSpace=wrap;html=1;shadow=0;labelBackgroundColor=none;strokeWidth=1;fontFamily=Times New Roman;fontSize=12;align=center;" vertex="1" parent="F47bq9M9ml_TmjAejz09-21">
          <mxGeometry x="11.25" y="400" width="130" height="90" as="geometry" />
        </mxCell>
        <mxCell id="F47bq9M9ml_TmjAejz09-26" value="Menginformasikan ke Tim Import untuk selanjutnya dilakukan voluntary jika ada ketidaksesuaian" style="rounded=1;whiteSpace=wrap;html=1;shadow=0;labelBackgroundColor=none;strokeWidth=1;fontFamily=Times New Roman;fontSize=12;align=center;" vertex="1" parent="F47bq9M9ml_TmjAejz09-21">
          <mxGeometry x="15" y="550" width="127.5" height="90" as="geometry" />
        </mxCell>
        <mxCell id="F47bq9M9ml_TmjAejz09-29" value="" style="endArrow=classic;html=1;rounded=0;endSize=5;startSize=5;exitX=0.5;exitY=1;exitDx=0;exitDy=0;entryX=0.5;entryY=0;entryDx=0;entryDy=0;fontSize=12;fontFamily=Times New Roman;" edge="1" parent="F47bq9M9ml_TmjAejz09-21" source="F47bq9M9ml_TmjAejz09-24" target="F47bq9M9ml_TmjAejz09-25">
          <mxGeometry width="50" height="50" relative="1" as="geometry">
            <mxPoint x="80.25" y="580" as="sourcePoint" />
            <mxPoint x="80.25" y="610" as="targetPoint" />
          </mxGeometry>
        </mxCell>
        <mxCell id="F47bq9M9ml_TmjAejz09-30" value="" style="endArrow=classic;html=1;rounded=0;endSize=5;startSize=5;exitX=0.5;exitY=1;exitDx=0;exitDy=0;entryX=0.485;entryY=-0.01;entryDx=0;entryDy=0;fontSize=12;fontFamily=Times New Roman;entryPerimeter=0;" edge="1" parent="F47bq9M9ml_TmjAejz09-21" source="F47bq9M9ml_TmjAejz09-25" target="F47bq9M9ml_TmjAejz09-26">
          <mxGeometry width="50" height="50" relative="1" as="geometry">
            <mxPoint x="80.25" y="650" as="sourcePoint" />
            <mxPoint x="80.25" y="680" as="targetPoint" />
          </mxGeometry>
        </mxCell>
        <mxCell id="a-Qis_OgJlFIdu-Pk8SA-0" value="Selesai" style="rounded=1;whiteSpace=wrap;html=1;shadow=0;labelBackgroundColor=none;strokeWidth=1;fontFamily=Times New Roman;fontSize=12;align=center;" vertex="1" parent="F47bq9M9ml_TmjAejz09-21">
          <mxGeometry x="12.5" y="700" width="127.5" height="50" as="geometry" />
        </mxCell>
        <mxCell id="a-Qis_OgJlFIdu-Pk8SA-3" value="" style="endArrow=classic;html=1;rounded=0;exitX=0.478;exitY=0.999;exitDx=0;exitDy=0;entryX=0.5;entryY=0;entryDx=0;entryDy=0;endSize=5;startSize=5;exitPerimeter=0;" edge="1" parent="F47bq9M9ml_TmjAejz09-21" source="F47bq9M9ml_TmjAejz09-26" target="a-Qis_OgJlFIdu-Pk8SA-0">
          <mxGeometry width="50" height="50" relative="1" as="geometry">
            <mxPoint x="80" y="570" as="sourcePoint" />
            <mxPoint x="130" y="520" as="targetPoint" />
          </mxGeometry>
        </mxCell>
      </root>
    </mxGraphModel>
  </diagram>
</mxfile>
